<mxfile host="app.diagrams.net" agent="Mozilla/5.0 (Macintosh; Intel Mac OS X 10_15_7) AppleWebKit/605.1.15 (KHTML, like Gecko) Version/17.5 Safari/605.1.15" version="24.7.14">
  <diagram name="Page-1" id="jHINZmKcey3rdpf554NU">
    <mxGraphModel dx="1158" dy="684" grid="1" gridSize="10" guides="1" tooltips="1" connect="1" arrows="1" fold="1" page="1" pageScale="1" pageWidth="827" pageHeight="1169" math="0" shadow="0">
      <root>
        <mxCell id="0" />
        <mxCell id="1" parent="0" />
        <mxCell id="5wAvHKpj9pkWP0bOrU0t-28" value="" style="rounded=0;whiteSpace=wrap;html=1;fillColor=#f5f5f5;fontColor=#333333;strokeColor=#666666;movable=0;resizable=0;rotatable=0;deletable=0;editable=0;locked=1;connectable=0;" parent="1" vertex="1">
          <mxGeometry x="80" y="120" width="680" height="480" as="geometry" />
        </mxCell>
        <mxCell id="5wAvHKpj9pkWP0bOrU0t-8" style="edgeStyle=orthogonalEdgeStyle;rounded=0;orthogonalLoop=1;jettySize=auto;html=1;shape=flexArrow;fillColor=#ffcd28;gradientColor=#ffa500;strokeColor=#d79b00;" parent="1" source="5wAvHKpj9pkWP0bOrU0t-1" edge="1">
          <mxGeometry relative="1" as="geometry">
            <mxPoint x="180" y="320" as="targetPoint" />
          </mxGeometry>
        </mxCell>
        <mxCell id="5wAvHKpj9pkWP0bOrU0t-1" value="CPU Core 1&lt;div&gt;&lt;br&gt;&lt;/div&gt;&lt;div&gt;&lt;br&gt;&lt;/div&gt;&lt;div&gt;&lt;br&gt;&lt;/div&gt;&lt;div&gt;&lt;br&gt;&lt;/div&gt;" style="rounded=0;whiteSpace=wrap;html=1;fillColor=#dae8fc;strokeColor=#6c8ebf;" parent="1" vertex="1">
          <mxGeometry x="120" y="160" width="120" height="120" as="geometry" />
        </mxCell>
        <mxCell id="5wAvHKpj9pkWP0bOrU0t-2" value="CPU Core 2&lt;div&gt;&lt;br&gt;&lt;/div&gt;&lt;div&gt;&lt;br&gt;&lt;/div&gt;&lt;div&gt;&lt;br&gt;&lt;/div&gt;&lt;div&gt;&lt;br&gt;&lt;/div&gt;" style="rounded=0;whiteSpace=wrap;html=1;fillColor=#dae8fc;strokeColor=#6c8ebf;" parent="1" vertex="1">
          <mxGeometry x="280" y="160" width="120" height="120" as="geometry" />
        </mxCell>
        <mxCell id="5wAvHKpj9pkWP0bOrU0t-3" value="CPU Core 3&lt;div&gt;&lt;br&gt;&lt;/div&gt;&lt;div&gt;&lt;br&gt;&lt;/div&gt;&lt;div&gt;&lt;br&gt;&lt;/div&gt;&lt;div&gt;&lt;br&gt;&lt;/div&gt;" style="rounded=0;whiteSpace=wrap;html=1;fillColor=#dae8fc;strokeColor=#6c8ebf;" parent="1" vertex="1">
          <mxGeometry x="440" y="160" width="120" height="120" as="geometry" />
        </mxCell>
        <mxCell id="5wAvHKpj9pkWP0bOrU0t-4" value="CPU Core 4" style="rounded=0;whiteSpace=wrap;html=1;fillColor=#dae8fc;strokeColor=#6c8ebf;" parent="1" vertex="1">
          <mxGeometry x="600" y="160" width="120" height="120" as="geometry" />
        </mxCell>
        <mxCell id="5wAvHKpj9pkWP0bOrU0t-5" value="L1 Cache" style="rounded=0;whiteSpace=wrap;html=1;fillColor=#f8cecc;strokeColor=#b85450;" parent="1" vertex="1">
          <mxGeometry x="120" y="320" width="120" height="40" as="geometry" />
        </mxCell>
        <mxCell id="5wAvHKpj9pkWP0bOrU0t-6" value="L2 Cache&lt;div&gt;(private)&lt;/div&gt;" style="rounded=0;whiteSpace=wrap;html=1;fillColor=#ffe6cc;strokeColor=#d79b00;" parent="1" vertex="1">
          <mxGeometry x="120" y="360" width="120" height="80" as="geometry" />
        </mxCell>
        <mxCell id="5wAvHKpj9pkWP0bOrU0t-7" value="L3 Cache&lt;div&gt;(shared)&lt;/div&gt;" style="rounded=0;whiteSpace=wrap;html=1;fillColor=#fff2cc;strokeColor=#d6b656;" parent="1" vertex="1">
          <mxGeometry x="120" y="480" width="600" height="80" as="geometry" />
        </mxCell>
        <mxCell id="5wAvHKpj9pkWP0bOrU0t-10" style="edgeStyle=orthogonalEdgeStyle;rounded=0;orthogonalLoop=1;jettySize=auto;html=1;entryX=0.1;entryY=0.025;entryDx=0;entryDy=0;entryPerimeter=0;shape=flexArrow;fillColor=#ffcd28;gradientColor=#ffa500;strokeColor=#d79b00;" parent="1" source="5wAvHKpj9pkWP0bOrU0t-6" target="5wAvHKpj9pkWP0bOrU0t-7" edge="1">
          <mxGeometry relative="1" as="geometry" />
        </mxCell>
        <mxCell id="5wAvHKpj9pkWP0bOrU0t-11" style="edgeStyle=orthogonalEdgeStyle;rounded=0;orthogonalLoop=1;jettySize=auto;html=1;entryX=0.5;entryY=0;entryDx=0;entryDy=0;shape=flexArrow;fillColor=#d5e8d4;gradientColor=#97d077;strokeColor=#82b366;" parent="1" target="5wAvHKpj9pkWP0bOrU0t-13" edge="1">
          <mxGeometry relative="1" as="geometry">
            <mxPoint x="340" y="280" as="sourcePoint" />
          </mxGeometry>
        </mxCell>
        <mxCell id="5wAvHKpj9pkWP0bOrU0t-13" value="&lt;div&gt;L1 Cache&lt;br&gt;&lt;/div&gt;" style="rounded=0;whiteSpace=wrap;html=1;fillColor=#f8cecc;strokeColor=#b85450;" parent="1" vertex="1">
          <mxGeometry x="280" y="320" width="120" height="40" as="geometry" />
        </mxCell>
        <mxCell id="5wAvHKpj9pkWP0bOrU0t-14" value="L2 Cache&lt;div&gt;(private)&lt;/div&gt;" style="rounded=0;whiteSpace=wrap;html=1;fillColor=#ffe6cc;strokeColor=#d79b00;" parent="1" vertex="1">
          <mxGeometry x="280" y="360" width="120" height="80" as="geometry" />
        </mxCell>
        <mxCell id="5wAvHKpj9pkWP0bOrU0t-15" style="edgeStyle=orthogonalEdgeStyle;rounded=0;orthogonalLoop=1;jettySize=auto;html=1;entryX=0.1;entryY=0.025;entryDx=0;entryDy=0;entryPerimeter=0;shape=flexArrow;fillColor=#d5e8d4;gradientColor=#97d077;strokeColor=#82b366;" parent="1" source="5wAvHKpj9pkWP0bOrU0t-14" edge="1">
          <mxGeometry relative="1" as="geometry">
            <mxPoint x="340" y="482" as="targetPoint" />
          </mxGeometry>
        </mxCell>
        <mxCell id="5wAvHKpj9pkWP0bOrU0t-16" style="edgeStyle=orthogonalEdgeStyle;rounded=0;orthogonalLoop=1;jettySize=auto;html=1;entryX=0.5;entryY=0;entryDx=0;entryDy=0;shape=flexArrow;fillColor=#d5e8d4;gradientColor=#97d077;strokeColor=#82b366;" parent="1" target="5wAvHKpj9pkWP0bOrU0t-18" edge="1">
          <mxGeometry relative="1" as="geometry">
            <mxPoint x="500" y="280" as="sourcePoint" />
          </mxGeometry>
        </mxCell>
        <mxCell id="5wAvHKpj9pkWP0bOrU0t-18" value="L1 Cache" style="rounded=0;whiteSpace=wrap;html=1;fillColor=#f8cecc;strokeColor=#b85450;" parent="1" vertex="1">
          <mxGeometry x="440" y="320" width="120" height="40" as="geometry" />
        </mxCell>
        <mxCell id="5wAvHKpj9pkWP0bOrU0t-19" value="L2 Cache&lt;div&gt;(private)&lt;/div&gt;" style="rounded=0;whiteSpace=wrap;html=1;fillColor=#ffe6cc;strokeColor=#d79b00;" parent="1" vertex="1">
          <mxGeometry x="440" y="360" width="120" height="80" as="geometry" />
        </mxCell>
        <mxCell id="5wAvHKpj9pkWP0bOrU0t-20" style="edgeStyle=orthogonalEdgeStyle;rounded=0;orthogonalLoop=1;jettySize=auto;html=1;entryX=0.1;entryY=0.025;entryDx=0;entryDy=0;entryPerimeter=0;shape=flexArrow;fillColor=#d5e8d4;gradientColor=#97d077;strokeColor=#82b366;" parent="1" source="5wAvHKpj9pkWP0bOrU0t-19" edge="1">
          <mxGeometry relative="1" as="geometry">
            <mxPoint x="500" y="482" as="targetPoint" />
          </mxGeometry>
        </mxCell>
        <mxCell id="5wAvHKpj9pkWP0bOrU0t-21" style="edgeStyle=orthogonalEdgeStyle;rounded=0;orthogonalLoop=1;jettySize=auto;html=1;entryX=0.5;entryY=0;entryDx=0;entryDy=0;shape=flexArrow;fillColor=#f5f5f5;gradientColor=#b3b3b3;strokeColor=#666666;" parent="1" target="5wAvHKpj9pkWP0bOrU0t-23" edge="1">
          <mxGeometry relative="1" as="geometry">
            <mxPoint x="660" y="280" as="sourcePoint" />
          </mxGeometry>
        </mxCell>
        <mxCell id="5wAvHKpj9pkWP0bOrU0t-23" value="L1 Cache" style="rounded=0;whiteSpace=wrap;html=1;fillColor=#f8cecc;strokeColor=#b85450;" parent="1" vertex="1">
          <mxGeometry x="600" y="320" width="120" height="40" as="geometry" />
        </mxCell>
        <mxCell id="5wAvHKpj9pkWP0bOrU0t-24" value="L2 Cache&lt;div&gt;(private)&lt;/div&gt;&lt;div&gt;&lt;br&gt;&lt;/div&gt;" style="rounded=0;whiteSpace=wrap;html=1;fillColor=#ffe6cc;strokeColor=#d79b00;" parent="1" vertex="1">
          <mxGeometry x="600" y="360" width="120" height="80" as="geometry" />
        </mxCell>
        <mxCell id="5wAvHKpj9pkWP0bOrU0t-25" style="edgeStyle=orthogonalEdgeStyle;rounded=0;orthogonalLoop=1;jettySize=auto;html=1;entryX=0.1;entryY=0.025;entryDx=0;entryDy=0;entryPerimeter=0;shape=flexArrow;fillColor=#f5f5f5;gradientColor=#b3b3b3;strokeColor=#666666;" parent="1" source="5wAvHKpj9pkWP0bOrU0t-24" edge="1">
          <mxGeometry relative="1" as="geometry">
            <mxPoint x="660" y="482" as="targetPoint" />
          </mxGeometry>
        </mxCell>
        <mxCell id="5wAvHKpj9pkWP0bOrU0t-30" value="&lt;b&gt;&lt;font style=&quot;font-size: 14px;&quot;&gt;CPU Package&lt;/font&gt;&lt;/b&gt;" style="text;html=1;align=center;verticalAlign=middle;resizable=0;points=[];autosize=1;strokeColor=none;fillColor=none;" parent="1" vertex="1">
          <mxGeometry x="75" y="120" width="110" height="30" as="geometry" />
        </mxCell>
        <mxCell id="5wAvHKpj9pkWP0bOrU0t-58" style="edgeStyle=orthogonalEdgeStyle;rounded=0;orthogonalLoop=1;jettySize=auto;html=1;exitX=0.5;exitY=0;exitDx=0;exitDy=0;entryX=0.25;entryY=1;entryDx=0;entryDy=0;curved=1;fillColor=#d5e8d4;gradientColor=#97d077;strokeColor=#82b366;strokeWidth=2;" parent="1" source="5wAvHKpj9pkWP0bOrU0t-118" target="5wAvHKpj9pkWP0bOrU0t-44" edge="1">
          <mxGeometry relative="1" as="geometry" />
        </mxCell>
        <mxCell id="5wAvHKpj9pkWP0bOrU0t-34" value="4" style="rounded=0;whiteSpace=wrap;html=1;fillColor=#d5e8d4;gradientColor=#97d077;strokeColor=#333333;" parent="1" vertex="1">
          <mxGeometry x="220" y="510" width="20" height="20" as="geometry" />
        </mxCell>
        <mxCell id="5wAvHKpj9pkWP0bOrU0t-56" style="edgeStyle=orthogonalEdgeStyle;rounded=0;orthogonalLoop=1;jettySize=auto;html=1;entryX=0;entryY=0.25;entryDx=0;entryDy=0;curved=1;exitX=0;exitY=0.5;exitDx=0;exitDy=0;fillColor=#ffcd28;gradientColor=#ffa500;strokeColor=#d79b00;strokeWidth=2;" parent="1" source="5wAvHKpj9pkWP0bOrU0t-35" target="5wAvHKpj9pkWP0bOrU0t-40" edge="1">
          <mxGeometry relative="1" as="geometry">
            <Array as="points">
              <mxPoint x="90" y="250" />
              <mxPoint x="90" y="335" />
            </Array>
          </mxGeometry>
        </mxCell>
        <mxCell id="5wAvHKpj9pkWP0bOrU0t-35" value="&lt;div style=&quot;text-align: left; line-height: 80%;&quot;&gt;&lt;font style=&quot;font-size: 8px;&quot;&gt;Receive&lt;/font&gt;&lt;/div&gt;&lt;div style=&quot;text-align: left; line-height: 80%;&quot;&gt;&lt;span style=&quot;font-size: 8px;&quot;&gt;Parse&lt;/span&gt;&lt;/div&gt;&lt;div style=&quot;text-align: left; line-height: 80%;&quot;&gt;&lt;span style=&quot;font-size: 8px; text-align: left;&quot;&gt;Notify&lt;/span&gt;&lt;/div&gt;" style="rounded=0;whiteSpace=wrap;html=1;fillColor=#f5f5f5;gradientColor=#b3b3b3;strokeColor=#666666;" parent="1" vertex="1">
          <mxGeometry x="140" y="230" width="80" height="40" as="geometry" />
        </mxCell>
        <mxCell id="5wAvHKpj9pkWP0bOrU0t-55" style="edgeStyle=orthogonalEdgeStyle;rounded=0;orthogonalLoop=1;jettySize=auto;html=1;entryX=0.5;entryY=0;entryDx=0;entryDy=0;curved=1;strokeWidth=2;fillColor=#ffcd28;gradientColor=#ffa500;strokeColor=#d79b00;exitX=1;exitY=0.75;exitDx=0;exitDy=0;" parent="1" source="5wAvHKpj9pkWP0bOrU0t-39" target="5wAvHKpj9pkWP0bOrU0t-120" edge="1">
          <mxGeometry relative="1" as="geometry">
            <Array as="points">
              <mxPoint x="250" y="425" />
            </Array>
          </mxGeometry>
        </mxCell>
        <mxCell id="5wAvHKpj9pkWP0bOrU0t-39" value="5" style="rounded=0;whiteSpace=wrap;html=1;fillColor=#ffcd28;gradientColor=#ffa500;strokeColor=#000000;" parent="1" vertex="1">
          <mxGeometry x="130" y="410" width="20" height="20" as="geometry" />
        </mxCell>
        <mxCell id="5wAvHKpj9pkWP0bOrU0t-40" value="5" style="rounded=0;whiteSpace=wrap;html=1;fillColor=#ffcd28;gradientColor=#ffa500;strokeColor=#000000;" parent="1" vertex="1">
          <mxGeometry x="130" y="330" width="20" height="20" as="geometry" />
        </mxCell>
        <mxCell id="5wAvHKpj9pkWP0bOrU0t-42" value="&lt;span style=&quot;font-size: 8px; text-align: left;&quot;&gt;Analyse&lt;/span&gt;" style="rounded=0;whiteSpace=wrap;html=1;fillColor=#f5f5f5;gradientColor=#b3b3b3;strokeColor=#666666;" parent="1" vertex="1">
          <mxGeometry x="297.5" y="230" width="82.5" height="40" as="geometry" />
        </mxCell>
        <mxCell id="5wAvHKpj9pkWP0bOrU0t-125" style="edgeStyle=orthogonalEdgeStyle;rounded=0;orthogonalLoop=1;jettySize=auto;html=1;exitX=0;exitY=0.25;exitDx=0;exitDy=0;entryX=0;entryY=0.5;entryDx=0;entryDy=0;fillColor=#d5e8d4;gradientColor=#97d077;strokeColor=#82b366;strokeWidth=2;curved=1;" parent="1" source="5wAvHKpj9pkWP0bOrU0t-43" target="5wAvHKpj9pkWP0bOrU0t-42" edge="1">
          <mxGeometry relative="1" as="geometry">
            <Array as="points">
              <mxPoint x="250" y="335" />
              <mxPoint x="250" y="250" />
            </Array>
          </mxGeometry>
        </mxCell>
        <mxCell id="5wAvHKpj9pkWP0bOrU0t-43" value="3" style="rounded=0;whiteSpace=wrap;html=1;fillColor=#d5e8d4;gradientColor=#97d077;strokeColor=#000000;" parent="1" vertex="1">
          <mxGeometry x="290" y="330" width="20" height="20" as="geometry" />
        </mxCell>
        <mxCell id="5wAvHKpj9pkWP0bOrU0t-59" style="edgeStyle=orthogonalEdgeStyle;rounded=0;orthogonalLoop=1;jettySize=auto;html=1;exitX=0;exitY=0.25;exitDx=0;exitDy=0;entryX=0;entryY=0.75;entryDx=0;entryDy=0;fillColor=#d5e8d4;gradientColor=#97d077;strokeColor=#82b366;curved=1;strokeWidth=2;" parent="1" source="5wAvHKpj9pkWP0bOrU0t-44" target="5wAvHKpj9pkWP0bOrU0t-43" edge="1">
          <mxGeometry relative="1" as="geometry">
            <Array as="points">
              <mxPoint x="250" y="415" />
              <mxPoint x="250" y="345" />
            </Array>
          </mxGeometry>
        </mxCell>
        <mxCell id="5wAvHKpj9pkWP0bOrU0t-44" value="3" style="rounded=0;whiteSpace=wrap;html=1;fillColor=#d5e8d4;gradientColor=#97d077;strokeColor=#000000;" parent="1" vertex="1">
          <mxGeometry x="290" y="410" width="20" height="20" as="geometry" />
        </mxCell>
        <mxCell id="5wAvHKpj9pkWP0bOrU0t-46" value="Market Data" style="rounded=0;whiteSpace=wrap;html=1;fillColor=#ffcd28;gradientColor=#ffa500;strokeColor=#000000;" parent="1" vertex="1">
          <mxGeometry x="140" y="210" width="80" height="20" as="geometry" />
        </mxCell>
        <mxCell id="5wAvHKpj9pkWP0bOrU0t-47" value="Analysis" style="rounded=0;whiteSpace=wrap;html=1;fillColor=#d5e8d4;gradientColor=#97d077;strokeColor=#000000;" parent="1" vertex="1">
          <mxGeometry x="297.5" y="210" width="82.5" height="20" as="geometry" />
        </mxCell>
        <mxCell id="5wAvHKpj9pkWP0bOrU0t-52" value="" style="endArrow=classic;html=1;rounded=0;exitX=0;exitY=0.75;exitDx=0;exitDy=0;strokeWidth=2;fillColor=#ffcd28;gradientColor=#ffa500;strokeColor=#d79b00;edgeStyle=orthogonalEdgeStyle;curved=1;entryX=0;entryY=0.25;entryDx=0;entryDy=0;" parent="1" source="5wAvHKpj9pkWP0bOrU0t-40" target="5wAvHKpj9pkWP0bOrU0t-39" edge="1">
          <mxGeometry width="50" height="50" relative="1" as="geometry">
            <mxPoint x="450" y="410" as="sourcePoint" />
            <mxPoint x="130" y="420" as="targetPoint" />
            <Array as="points">
              <mxPoint x="90" y="345" />
              <mxPoint x="90" y="415" />
            </Array>
          </mxGeometry>
        </mxCell>
        <mxCell id="5wAvHKpj9pkWP0bOrU0t-117" value="2" style="rounded=0;whiteSpace=wrap;html=1;fillColor=#f5f5f5;gradientColor=#b3b3b3;strokeColor=#333333;" parent="1" vertex="1">
          <mxGeometry x="180" y="510" width="20" height="20" as="geometry" />
        </mxCell>
        <mxCell id="5wAvHKpj9pkWP0bOrU0t-118" value="3" style="rounded=0;whiteSpace=wrap;html=1;fillColor=#d5e8d4;gradientColor=#97d077;strokeColor=#333333;" parent="1" vertex="1">
          <mxGeometry x="200" y="510" width="20" height="20" as="geometry" />
        </mxCell>
        <mxCell id="5wAvHKpj9pkWP0bOrU0t-120" value="5" style="rounded=0;whiteSpace=wrap;html=1;fillColor=#ffcd28;gradientColor=#ffa500;strokeColor=#333333;" parent="1" vertex="1">
          <mxGeometry x="240" y="510" width="20" height="20" as="geometry" />
        </mxCell>
        <mxCell id="5wAvHKpj9pkWP0bOrU0t-121" value="1" style="rounded=0;whiteSpace=wrap;html=1;fillColor=#f5f5f5;gradientColor=#b3b3b3;strokeColor=#333333;" parent="1" vertex="1">
          <mxGeometry x="160" y="510" width="20" height="20" as="geometry" />
        </mxCell>
        <mxCell id="5wAvHKpj9pkWP0bOrU0t-122" value="6" style="rounded=0;whiteSpace=wrap;html=1;fillColor=#f5f5f5;gradientColor=#b3b3b3;strokeColor=#333333;" parent="1" vertex="1">
          <mxGeometry x="260" y="510" width="20" height="20" as="geometry" />
        </mxCell>
        <mxCell id="5wAvHKpj9pkWP0bOrU0t-123" value="7" style="rounded=0;whiteSpace=wrap;html=1;fillColor=#f5f5f5;gradientColor=#b3b3b3;strokeColor=#333333;" parent="1" vertex="1">
          <mxGeometry x="280" y="510" width="20" height="20" as="geometry" />
        </mxCell>
        <mxCell id="5wAvHKpj9pkWP0bOrU0t-124" value="0" style="rounded=0;whiteSpace=wrap;html=1;fillColor=#f5f5f5;gradientColor=#b3b3b3;strokeColor=#333333;" parent="1" vertex="1">
          <mxGeometry x="140" y="510" width="20" height="20" as="geometry" />
        </mxCell>
        <mxCell id="5wAvHKpj9pkWP0bOrU0t-127" value="&lt;font style=&quot;font-size: 10px;&quot;&gt;Ring-Buffer&lt;/font&gt;" style="rounded=0;whiteSpace=wrap;html=1;fillColor=#d5e8d4;gradientColor=#97d077;strokeColor=#333333;" parent="1" vertex="1">
          <mxGeometry x="140" y="530" width="160" height="20" as="geometry" />
        </mxCell>
        <mxCell id="5wAvHKpj9pkWP0bOrU0t-129" value="&lt;span style=&quot;font-size: 8px; text-align: left;&quot;&gt;Analyse&lt;/span&gt;" style="rounded=0;whiteSpace=wrap;html=1;fillColor=#f5f5f5;gradientColor=#b3b3b3;strokeColor=#666666;" parent="1" vertex="1">
          <mxGeometry x="458.75" y="230" width="82.5" height="40" as="geometry" />
        </mxCell>
        <mxCell id="5wAvHKpj9pkWP0bOrU0t-130" value="Analysis" style="rounded=0;whiteSpace=wrap;html=1;fillColor=#d5e8d4;gradientColor=#97d077;strokeColor=#000000;" parent="1" vertex="1">
          <mxGeometry x="458.75" y="210" width="82.5" height="20" as="geometry" />
        </mxCell>
        <mxCell id="5wAvHKpj9pkWP0bOrU0t-149" value="" style="endArrow=none;dashed=1;html=1;dashPattern=1 3;strokeWidth=2;rounded=0;movable=0;resizable=0;rotatable=0;deletable=0;editable=0;locked=1;connectable=0;" parent="1" edge="1">
          <mxGeometry width="50" height="50" relative="1" as="geometry">
            <mxPoint x="220" y="734.5" as="sourcePoint" />
            <mxPoint x="700" y="735" as="targetPoint" />
          </mxGeometry>
        </mxCell>
        <mxCell id="5wAvHKpj9pkWP0bOrU0t-148" value="" style="endArrow=none;dashed=1;html=1;dashPattern=1 3;strokeWidth=2;rounded=0;movable=0;resizable=0;rotatable=0;deletable=0;editable=0;locked=1;connectable=0;" parent="1" edge="1">
          <mxGeometry width="50" height="50" relative="1" as="geometry">
            <mxPoint x="220" y="690" as="sourcePoint" />
            <mxPoint x="700" y="690" as="targetPoint" />
          </mxGeometry>
        </mxCell>
        <mxCell id="5wAvHKpj9pkWP0bOrU0t-134" value="1" style="rounded=0;whiteSpace=wrap;html=1;fillColor=#ffcd28;gradientColor=#ffa500;strokeColor=#660000;gradientDirection=east;movable=1;resizable=1;rotatable=1;deletable=1;editable=1;locked=0;connectable=1;" parent="1" vertex="1">
          <mxGeometry x="240" y="670" width="60" height="40" as="geometry" />
        </mxCell>
        <mxCell id="5wAvHKpj9pkWP0bOrU0t-135" value="" style="endArrow=classic;html=1;rounded=0;movable=0;resizable=0;rotatable=0;deletable=0;editable=0;locked=1;connectable=0;" parent="1" edge="1">
          <mxGeometry width="50" height="50" relative="1" as="geometry">
            <mxPoint x="220" y="830" as="sourcePoint" />
            <mxPoint x="700" y="830" as="targetPoint" />
          </mxGeometry>
        </mxCell>
        <mxCell id="5wAvHKpj9pkWP0bOrU0t-136" value="Time" style="text;html=1;align=center;verticalAlign=middle;resizable=1;points=[];autosize=1;strokeColor=none;fillColor=none;movable=1;rotatable=1;deletable=1;editable=1;locked=0;connectable=1;" parent="1" vertex="1">
          <mxGeometry x="640" y="838" width="50" height="30" as="geometry" />
        </mxCell>
        <mxCell id="5wAvHKpj9pkWP0bOrU0t-137" value="CPU Core 1&lt;div&gt;&lt;font style=&quot;font-size: 10px;&quot;&gt;Thread 1&lt;/font&gt;&lt;i style=&quot;font-size: 8px;&quot;&gt;&amp;nbsp;(pinned)&lt;/i&gt;&lt;/div&gt;" style="text;html=1;align=center;verticalAlign=middle;resizable=1;points=[];autosize=1;strokeColor=none;fillColor=none;movable=1;rotatable=1;deletable=1;editable=1;locked=0;connectable=1;" parent="1" vertex="1">
          <mxGeometry x="115" y="670" width="100" height="40" as="geometry" />
        </mxCell>
        <mxCell id="5wAvHKpj9pkWP0bOrU0t-138" value="CPU Core 2&lt;div&gt;&lt;font style=&quot;font-size: 10px;&quot;&gt;Thread 2&amp;nbsp;&lt;/font&gt;&lt;i style=&quot;font-size: 8px;&quot;&gt;(pinned)&lt;/i&gt;&lt;/div&gt;" style="text;html=1;align=center;verticalAlign=middle;resizable=1;points=[];autosize=1;strokeColor=none;fillColor=none;movable=1;rotatable=1;deletable=1;editable=1;locked=0;connectable=1;" parent="1" vertex="1">
          <mxGeometry x="115" y="720" width="100" height="40" as="geometry" />
        </mxCell>
        <mxCell id="5wAvHKpj9pkWP0bOrU0t-139" value="2" style="rounded=0;whiteSpace=wrap;html=1;fillColor=#ffcd28;gradientColor=#ffa500;strokeColor=#660000;gradientDirection=east;movable=1;resizable=1;rotatable=1;deletable=1;editable=1;locked=0;connectable=1;" parent="1" vertex="1">
          <mxGeometry x="320" y="670" width="50" height="40" as="geometry" />
        </mxCell>
        <mxCell id="5wAvHKpj9pkWP0bOrU0t-140" value="3" style="rounded=0;whiteSpace=wrap;html=1;fillColor=#ffcd28;gradientColor=#ffa500;strokeColor=#660000;gradientDirection=east;movable=1;resizable=1;rotatable=1;deletable=1;editable=1;locked=0;connectable=1;" parent="1" vertex="1">
          <mxGeometry x="400" y="670" width="70" height="40" as="geometry" />
        </mxCell>
        <mxCell id="5wAvHKpj9pkWP0bOrU0t-141" value="4" style="rounded=0;whiteSpace=wrap;html=1;fillColor=#ffcd28;gradientColor=#ffa500;strokeColor=#660000;gradientDirection=east;movable=1;resizable=1;rotatable=1;deletable=1;editable=1;locked=0;connectable=1;" parent="1" vertex="1">
          <mxGeometry x="480" y="670" width="40" height="40" as="geometry" />
        </mxCell>
        <mxCell id="5wAvHKpj9pkWP0bOrU0t-142" value="1" style="rounded=0;whiteSpace=wrap;html=1;fillColor=#d5e8d4;gradientColor=#97d077;strokeColor=#660000;gradientDirection=east;movable=1;resizable=1;rotatable=1;deletable=1;editable=1;locked=0;connectable=1;" parent="1" vertex="1">
          <mxGeometry x="300" y="710" width="60" height="40" as="geometry" />
        </mxCell>
        <mxCell id="5wAvHKpj9pkWP0bOrU0t-145" value="3" style="rounded=0;whiteSpace=wrap;html=1;fillColor=#d5e8d4;gradientColor=#97d077;strokeColor=#660000;gradientDirection=east;movable=1;resizable=1;rotatable=1;deletable=1;editable=1;locked=0;connectable=1;" parent="1" vertex="1">
          <mxGeometry x="470" y="710" width="110" height="40" as="geometry" />
        </mxCell>
        <mxCell id="5wAvHKpj9pkWP0bOrU0t-146" value="5" style="rounded=0;whiteSpace=wrap;html=1;fillColor=#ffcd28;gradientColor=#ffa500;strokeColor=#660000;gradientDirection=east;movable=1;resizable=1;rotatable=1;deletable=1;editable=1;locked=0;connectable=1;" parent="1" vertex="1">
          <mxGeometry x="560" y="670" width="40" height="40" as="geometry" />
        </mxCell>
        <mxCell id="5wAvHKpj9pkWP0bOrU0t-150" value="" style="endArrow=none;html=1;rounded=0;movable=0;resizable=0;rotatable=0;deletable=0;editable=0;locked=1;connectable=0;" parent="1" edge="1">
          <mxGeometry width="50" height="50" relative="1" as="geometry">
            <mxPoint x="220" y="870" as="sourcePoint" />
            <mxPoint x="220" y="650" as="targetPoint" />
          </mxGeometry>
        </mxCell>
        <mxCell id="XTBzpI1Qbm_Vmd8OKEiI-1" value="" style="rounded=0;whiteSpace=wrap;html=1;fillColor=#e6d0de;gradientColor=#d5739d;strokeColor=#660000;gradientDirection=east;movable=1;resizable=1;rotatable=1;deletable=1;editable=1;locked=0;connectable=1;" parent="1" vertex="1">
          <mxGeometry x="300" y="670" width="20" height="40" as="geometry" />
        </mxCell>
        <mxCell id="XTBzpI1Qbm_Vmd8OKEiI-3" value="" style="rounded=0;whiteSpace=wrap;html=1;fillColor=#e6d0de;gradientColor=#d5739d;strokeColor=#660000;gradientDirection=east;movable=1;resizable=1;rotatable=1;deletable=1;editable=1;locked=0;connectable=1;" parent="1" vertex="1">
          <mxGeometry x="370" y="670" width="30" height="40" as="geometry" />
        </mxCell>
        <mxCell id="XTBzpI1Qbm_Vmd8OKEiI-4" value="" style="rounded=0;whiteSpace=wrap;html=1;fillColor=#e6d0de;gradientColor=#d5739d;strokeColor=#660000;gradientDirection=east;movable=1;resizable=1;rotatable=1;deletable=1;editable=1;locked=0;connectable=1;" parent="1" vertex="1">
          <mxGeometry x="470" y="670" width="10" height="40" as="geometry" />
        </mxCell>
        <mxCell id="XTBzpI1Qbm_Vmd8OKEiI-5" value="" style="rounded=0;whiteSpace=wrap;html=1;fillColor=#e6d0de;gradientColor=#d5739d;strokeColor=#660000;gradientDirection=east;movable=1;resizable=1;rotatable=1;deletable=1;editable=1;locked=0;connectable=1;" parent="1" vertex="1">
          <mxGeometry x="520" y="670" width="40" height="40" as="geometry" />
        </mxCell>
        <mxCell id="XTBzpI1Qbm_Vmd8OKEiI-6" value="" style="rounded=0;whiteSpace=wrap;html=1;fillColor=#e6d0de;gradientColor=#d5739d;strokeColor=#660000;gradientDirection=east;movable=1;resizable=1;rotatable=1;deletable=1;editable=1;locked=0;connectable=1;" parent="1" vertex="1">
          <mxGeometry x="360" y="710" width="10" height="40" as="geometry" />
        </mxCell>
        <mxCell id="XTBzpI1Qbm_Vmd8OKEiI-7" value="" style="rounded=0;whiteSpace=wrap;html=1;fillColor=#e6d0de;gradientColor=#d5739d;strokeColor=#660000;gradientDirection=east;movable=1;resizable=1;rotatable=1;deletable=1;editable=1;locked=0;connectable=1;" parent="1" vertex="1">
          <mxGeometry x="400" y="710" width="70" height="40" as="geometry" />
        </mxCell>
        <mxCell id="XTBzpI1Qbm_Vmd8OKEiI-8" value="" style="rounded=0;whiteSpace=wrap;html=1;fillColor=#e6d0de;gradientColor=#d5739d;strokeColor=#660000;gradientDirection=east;movable=1;resizable=1;rotatable=1;deletable=1;editable=1;locked=0;connectable=1;" parent="1" vertex="1">
          <mxGeometry x="580" y="710" width="60" height="40" as="geometry" />
        </mxCell>
        <mxCell id="XTBzpI1Qbm_Vmd8OKEiI-9" value="" style="rounded=0;whiteSpace=wrap;html=1;fillColor=#e6d0de;gradientColor=#d5739d;strokeColor=#660000;gradientDirection=east;movable=1;resizable=1;rotatable=1;deletable=1;editable=1;locked=0;connectable=1;" parent="1" vertex="1">
          <mxGeometry x="600" y="670" width="40" height="40" as="geometry" />
        </mxCell>
        <mxCell id="XTBzpI1Qbm_Vmd8OKEiI-10" value="" style="rounded=0;whiteSpace=wrap;html=1;fillColor=#e6d0de;gradientColor=#d5739d;strokeColor=#660000;gradientDirection=east;movable=1;resizable=1;rotatable=1;deletable=1;editable=1;locked=0;connectable=1;" parent="1" vertex="1">
          <mxGeometry x="240" y="710" width="60" height="40" as="geometry" />
        </mxCell>
        <mxCell id="XTBzpI1Qbm_Vmd8OKEiI-24" value="Zero Latency Pipelining" style="text;html=1;align=center;verticalAlign=middle;resizable=1;points=[];autosize=1;strokeColor=none;fillColor=none;movable=1;rotatable=1;deletable=1;editable=1;locked=0;connectable=1;" parent="1" vertex="1">
          <mxGeometry x="308.75" y="860" width="150" height="30" as="geometry" />
        </mxCell>
        <mxCell id="XTBzpI1Qbm_Vmd8OKEiI-18" value="" style="shape=waypoint;sketch=0;fillStyle=solid;size=6;pointerEvents=1;points=[];resizable=1;rotatable=1;perimeter=centerPerimeter;snapToPoint=1;strokeColor=#000000;fillColor=#660033;movable=1;deletable=1;editable=1;locked=0;connectable=1;" parent="1" vertex="1">
          <mxGeometry x="360" y="700" width="20" height="20" as="geometry" />
        </mxCell>
        <mxCell id="XTBzpI1Qbm_Vmd8OKEiI-22" value="" style="shape=waypoint;sketch=0;fillStyle=solid;size=6;pointerEvents=1;points=[];resizable=1;rotatable=1;perimeter=centerPerimeter;snapToPoint=1;strokeColor=#000000;fillColor=#660033;movable=1;deletable=1;editable=1;locked=0;connectable=1;" parent="1" vertex="1">
          <mxGeometry x="460" y="700" width="20" height="20" as="geometry" />
        </mxCell>
        <mxCell id="XTBzpI1Qbm_Vmd8OKEiI-20" value="" style="shape=waypoint;sketch=0;fillStyle=solid;size=6;pointerEvents=1;points=[];resizable=1;rotatable=1;perimeter=centerPerimeter;snapToPoint=1;strokeColor=#000000;fillColor=#660033;movable=1;deletable=1;editable=1;locked=0;connectable=1;" parent="1" vertex="1">
          <mxGeometry x="290" y="700" width="20" height="20" as="geometry" />
        </mxCell>
        <mxCell id="XTBzpI1Qbm_Vmd8OKEiI-47" value="" style="endArrow=none;dashed=1;html=1;dashPattern=1 3;strokeWidth=2;rounded=0;movable=0;resizable=0;rotatable=0;deletable=0;editable=0;locked=1;connectable=0;" parent="1" edge="1">
          <mxGeometry width="50" height="50" relative="1" as="geometry">
            <mxPoint x="220" y="774.5" as="sourcePoint" />
            <mxPoint x="700" y="775" as="targetPoint" />
          </mxGeometry>
        </mxCell>
        <mxCell id="XTBzpI1Qbm_Vmd8OKEiI-51" value="4" style="rounded=0;whiteSpace=wrap;html=1;fillColor=#d5e8d4;gradientColor=#97d077;strokeColor=#660000;gradientDirection=east;movable=1;resizable=1;rotatable=1;deletable=1;editable=1;locked=0;connectable=1;" parent="1" vertex="1">
          <mxGeometry x="520" y="750" width="50" height="40" as="geometry" />
        </mxCell>
        <mxCell id="XTBzpI1Qbm_Vmd8OKEiI-54" value="" style="rounded=0;whiteSpace=wrap;html=1;fillColor=#e6d0de;gradientColor=#d5739d;strokeColor=#660000;gradientDirection=east;movable=1;resizable=1;rotatable=1;deletable=1;editable=1;locked=0;connectable=1;" parent="1" vertex="1">
          <mxGeometry x="570" y="750" width="70" height="40" as="geometry" />
        </mxCell>
        <mxCell id="XTBzpI1Qbm_Vmd8OKEiI-55" value="" style="rounded=0;whiteSpace=wrap;html=1;fillColor=#e6d0de;gradientColor=#d5739d;strokeColor=#660000;gradientDirection=east;movable=1;resizable=1;rotatable=1;deletable=1;editable=1;locked=0;connectable=1;" parent="1" vertex="1">
          <mxGeometry x="240" y="750" width="280" height="40" as="geometry" />
        </mxCell>
        <mxCell id="XTBzpI1Qbm_Vmd8OKEiI-26" value="" style="shape=waypoint;sketch=0;fillStyle=solid;size=6;pointerEvents=1;points=[];resizable=1;rotatable=1;perimeter=centerPerimeter;snapToPoint=1;strokeColor=#000000;fillColor=#000000;movable=1;deletable=1;editable=1;locked=0;connectable=1;" parent="1" vertex="1">
          <mxGeometry x="510" y="760" width="20" height="20" as="geometry" />
        </mxCell>
        <mxCell id="5wAvHKpj9pkWP0bOrU0t-144" value="2" style="rounded=0;whiteSpace=wrap;html=1;fillColor=#d5e8d4;gradientColor=#97d077;strokeColor=#660000;gradientDirection=east;movable=1;resizable=1;rotatable=1;deletable=1;editable=1;locked=0;connectable=1;" parent="1" vertex="1">
          <mxGeometry x="370" y="710" width="30" height="40" as="geometry" />
        </mxCell>
        <mxCell id="XTBzpI1Qbm_Vmd8OKEiI-59" value="" style="shape=waypoint;sketch=0;fillStyle=solid;size=6;pointerEvents=1;points=[];resizable=1;rotatable=1;perimeter=centerPerimeter;snapToPoint=1;strokeColor=#000000;fillColor=#000000;movable=1;deletable=1;editable=1;locked=0;connectable=1;" parent="1" vertex="1">
          <mxGeometry x="510" y="680" width="20" height="20" as="geometry" />
        </mxCell>
        <mxCell id="XTBzpI1Qbm_Vmd8OKEiI-19" value="" style="endArrow=classic;html=1;rounded=0;entryX=0.817;entryY=0.583;entryDx=0;entryDy=0;entryPerimeter=0;dashed=1;strokeColor=#4D4D4D;strokeWidth=1;movable=1;resizable=1;rotatable=1;deletable=1;editable=1;locked=0;connectable=1;" parent="1" source="XTBzpI1Qbm_Vmd8OKEiI-24" target="XTBzpI1Qbm_Vmd8OKEiI-18" edge="1">
          <mxGeometry width="50" height="50" relative="1" as="geometry">
            <mxPoint x="320" y="910" as="sourcePoint" />
            <mxPoint x="470" y="740" as="targetPoint" />
          </mxGeometry>
        </mxCell>
        <mxCell id="XTBzpI1Qbm_Vmd8OKEiI-21" value="" style="endArrow=classic;html=1;rounded=0;entryX=0.817;entryY=0.583;entryDx=0;entryDy=0;entryPerimeter=0;dashed=1;strokeColor=#4D4D4D;strokeWidth=1;movable=1;resizable=1;rotatable=1;deletable=1;editable=1;locked=0;connectable=1;" parent="1" source="XTBzpI1Qbm_Vmd8OKEiI-24" target="XTBzpI1Qbm_Vmd8OKEiI-20" edge="1">
          <mxGeometry width="50" height="50" relative="1" as="geometry">
            <mxPoint x="300" y="910" as="sourcePoint" />
            <mxPoint x="480" y="750" as="targetPoint" />
          </mxGeometry>
        </mxCell>
        <mxCell id="XTBzpI1Qbm_Vmd8OKEiI-23" value="" style="endArrow=classic;html=1;rounded=0;entryX=0.817;entryY=0.583;entryDx=0;entryDy=0;entryPerimeter=0;dashed=1;strokeColor=#4D4D4D;strokeWidth=1;movable=1;resizable=1;rotatable=1;deletable=1;editable=1;locked=0;connectable=1;" parent="1" source="XTBzpI1Qbm_Vmd8OKEiI-24" target="XTBzpI1Qbm_Vmd8OKEiI-22" edge="1">
          <mxGeometry width="50" height="50" relative="1" as="geometry">
            <mxPoint x="340" y="910" as="sourcePoint" />
            <mxPoint x="600" y="730" as="targetPoint" />
          </mxGeometry>
        </mxCell>
        <mxCell id="XTBzpI1Qbm_Vmd8OKEiI-27" style="rounded=0;orthogonalLoop=1;jettySize=auto;html=1;strokeWidth=1;dashed=1;strokeColor=#4D4D4D;movable=1;resizable=1;rotatable=1;deletable=1;editable=1;locked=0;connectable=1;" parent="1" source="XTBzpI1Qbm_Vmd8OKEiI-24" target="XTBzpI1Qbm_Vmd8OKEiI-26" edge="1">
          <mxGeometry relative="1" as="geometry" />
        </mxCell>
        <mxCell id="XTBzpI1Qbm_Vmd8OKEiI-60" value="Out Of Order" style="text;html=1;align=center;verticalAlign=middle;resizable=1;points=[];autosize=1;strokeColor=none;fillColor=none;movable=1;rotatable=1;deletable=1;editable=1;locked=0;connectable=1;" parent="1" vertex="1">
          <mxGeometry x="550" y="860" width="90" height="30" as="geometry" />
        </mxCell>
        <mxCell id="XTBzpI1Qbm_Vmd8OKEiI-61" style="rounded=0;orthogonalLoop=1;jettySize=auto;html=1;strokeWidth=1;dashed=1;strokeColor=#4D4D4D;movable=1;resizable=1;rotatable=1;deletable=1;editable=1;locked=0;connectable=1;entryX=0.36;entryY=0.724;entryDx=0;entryDy=0;entryPerimeter=0;" parent="1" source="XTBzpI1Qbm_Vmd8OKEiI-60" target="XTBzpI1Qbm_Vmd8OKEiI-62" edge="1">
          <mxGeometry relative="1" as="geometry">
            <mxPoint x="470" y="900" as="sourcePoint" />
            <mxPoint x="590" y="790" as="targetPoint" />
          </mxGeometry>
        </mxCell>
        <mxCell id="XTBzpI1Qbm_Vmd8OKEiI-62" value="" style="shape=waypoint;sketch=0;fillStyle=solid;size=6;pointerEvents=1;points=[];resizable=1;rotatable=1;perimeter=centerPerimeter;snapToPoint=1;strokeColor=#000000;fillColor=#000000;movable=1;deletable=1;editable=1;locked=0;connectable=1;" parent="1" vertex="1">
          <mxGeometry x="560" y="760" width="20" height="20" as="geometry" />
        </mxCell>
        <mxCell id="XTBzpI1Qbm_Vmd8OKEiI-34" value="" style="endArrow=blockThin;html=1;rounded=0;strokeWidth=3;startSize=2;endSize=4;endFill=1;strokeColor=#99004D;jumpSize=4;movable=1;resizable=1;rotatable=1;deletable=1;editable=1;locked=0;connectable=1;" parent="1" source="XTBzpI1Qbm_Vmd8OKEiI-59" target="XTBzpI1Qbm_Vmd8OKEiI-26" edge="1">
          <mxGeometry width="50" height="50" relative="1" as="geometry">
            <mxPoint x="520" y="710" as="sourcePoint" />
            <mxPoint x="520" y="780" as="targetPoint" />
          </mxGeometry>
        </mxCell>
        <mxCell id="XTBzpI1Qbm_Vmd8OKEiI-64" style="edgeStyle=orthogonalEdgeStyle;rounded=0;orthogonalLoop=1;jettySize=auto;html=1;exitX=0.5;exitY=0;exitDx=0;exitDy=0;entryX=0.25;entryY=1;entryDx=0;entryDy=0;curved=1;fillColor=#d5e8d4;gradientColor=#97d077;strokeColor=#82b366;strokeWidth=2;" parent="1" source="5wAvHKpj9pkWP0bOrU0t-34" target="XTBzpI1Qbm_Vmd8OKEiI-68" edge="1">
          <mxGeometry relative="1" as="geometry">
            <mxPoint x="390" y="509.5" as="sourcePoint" />
          </mxGeometry>
        </mxCell>
        <mxCell id="XTBzpI1Qbm_Vmd8OKEiI-65" style="edgeStyle=orthogonalEdgeStyle;rounded=0;orthogonalLoop=1;jettySize=auto;html=1;exitX=0;exitY=0.25;exitDx=0;exitDy=0;entryX=0;entryY=0.5;entryDx=0;entryDy=0;fillColor=#d5e8d4;gradientColor=#97d077;strokeColor=#82b366;strokeWidth=2;curved=1;" parent="1" source="XTBzpI1Qbm_Vmd8OKEiI-66" edge="1">
          <mxGeometry relative="1" as="geometry">
            <Array as="points">
              <mxPoint x="410" y="334.5" />
              <mxPoint x="410" y="249.5" />
            </Array>
            <mxPoint x="458" y="249.5" as="targetPoint" />
          </mxGeometry>
        </mxCell>
        <mxCell id="XTBzpI1Qbm_Vmd8OKEiI-66" value="4" style="rounded=0;whiteSpace=wrap;html=1;fillColor=#d5e8d4;gradientColor=#97d077;strokeColor=#000000;" parent="1" vertex="1">
          <mxGeometry x="450" y="329.5" width="20" height="20" as="geometry" />
        </mxCell>
        <mxCell id="XTBzpI1Qbm_Vmd8OKEiI-67" style="edgeStyle=orthogonalEdgeStyle;rounded=0;orthogonalLoop=1;jettySize=auto;html=1;exitX=0;exitY=0.25;exitDx=0;exitDy=0;entryX=0;entryY=0.75;entryDx=0;entryDy=0;fillColor=#d5e8d4;gradientColor=#97d077;strokeColor=#82b366;curved=1;strokeWidth=2;" parent="1" source="XTBzpI1Qbm_Vmd8OKEiI-68" target="XTBzpI1Qbm_Vmd8OKEiI-66" edge="1">
          <mxGeometry relative="1" as="geometry">
            <Array as="points">
              <mxPoint x="410" y="414.5" />
              <mxPoint x="410" y="344.5" />
            </Array>
          </mxGeometry>
        </mxCell>
        <mxCell id="XTBzpI1Qbm_Vmd8OKEiI-68" value="4" style="rounded=0;whiteSpace=wrap;html=1;fillColor=#d5e8d4;gradientColor=#97d077;strokeColor=#000000;" parent="1" vertex="1">
          <mxGeometry x="450" y="409.5" width="20" height="20" as="geometry" />
        </mxCell>
        <mxCell id="wHG6oa4IupuvhH1mk3ex-1" value="CPU Core 3&lt;div&gt;&lt;font style=&quot;font-size: 10px;&quot;&gt;Thread 3&amp;nbsp;&lt;/font&gt;&lt;i style=&quot;font-size: 8px;&quot;&gt;(pinned)&lt;/i&gt;&lt;/div&gt;" style="text;html=1;align=center;verticalAlign=middle;resizable=1;points=[];autosize=1;strokeColor=none;fillColor=none;movable=1;rotatable=1;deletable=1;editable=1;locked=0;connectable=1;" vertex="1" parent="1">
          <mxGeometry x="115" y="770" width="100" height="40" as="geometry" />
        </mxCell>
      </root>
    </mxGraphModel>
  </diagram>
</mxfile>
